<?xml version="1.0" encoding="UTF-8"?>
<!DOCTYPE svg PUBLIC "-//W3C//DTD SVG 1.1//EN" "http://www.w3.org/Graphics/SVG/1.1/DTD/svg11.dtd">
<!-- Creator: CorelDRAW 2020 (64 Bit) -->
<svg xmlns="http://www.w3.org/2000/svg" xml:space="preserve" width="80.9802mm" height="33.7721mm" version="1.1" style="shape-rendering:geometricPrecision; text-rendering:geometricPrecision; image-rendering:optimizeQuality; fill-rule:evenodd; clip-rule:evenodd"
viewBox="0 0 8324.63 3471.72"
 xmlns:xlink="http://www.w3.org/1999/xlink"
 xmlns:xodm="http://www.corel.com/coreldraw/odm/2003">
 <defs>
  <style type="text/css">
   <![CDATA[
    .fil0 {fill:#121B2A}
   ]]>
  </style>
 </defs>
 <g id="Camada_x0020_1">
  <metadata id="CorelCorpID_0Corel-Layer"/>
  <g id="_2733586455472">
   <path class="fil0" d="M4509.54 304.75l-424.41 -0.51c46.52,241.53 115.82,-43.28 119.97,294.33l-2.75 2307.1c-5.61,133.45 3.5,82.2 -78.86,190.05 -24.53,32.12 -16.55,-9.22 -39.88,60.85l101.89 30c3.74,0.56 89.62,4.95 92.68,4.87l161.5 -34.47c-24.22,-72.35 -15.02,-26.02 -40.49,-59.22 -3.92,-5.1 -10.75,-12.07 -14.75,-17.25l-55.8 -2156.09c206.91,503.15 520.72,1950.21 675.51,2263.13l331.75 -12.36 4.16 -2226.57c0.8,-917.81 57.4,-314.44 120.02,-643.54l-360.04 1.79c44.38,288.45 120.93,-169.48 117.86,515.25 -2.24,497.23 23.7,1499.2 -14.57,1888.09l-693.79 -2405.44z"/>
   <path class="fil0" d="M7535.18 1806.91c511.23,-24.21 524.05,180.99 523.75,659.76 -0.28,450.19 -29.48,647.36 -528.04,624.11l4.3 -1283.87zm-1.95 -1397.35c565.53,-32 527.17,175.75 527.06,668.97 -0.11,482.48 -13.96,639.51 -526.9,619.08l-0.15 -1288.05zm775.34 884.61c105.43,-1068.19 -311.01,-1002.38 -1157.2,-980.77 35.94,209.57 100.41,-6.47 104.85,319.4l-4.3 1896.07c-0.1,116.1 8.83,270.53 1.13,381.51 -18.96,273.01 -91.34,73.82 -99.92,274.65 724.9,30.33 1280.58,124.3 1152.34,-993.62 -29.54,-257.48 -123.66,-306.86 -245.6,-421.29l-36.95 -37.96c172.88,-54.23 265.12,-230.12 285.64,-437.99z"/>
   <path class="fil0" d="M6268.12 1808.41l-165.38 -0.02 1.71 -1405.75c606.36,2.01 531.04,260.44 530.24,957.73 -0.29,256.07 -96.38,447.95 -366.57,448.04zm-445.4 -1206.46l-2.59 2304.08c-0.36,314.16 -93.72,63.06 -107.74,271l487.47 10.21c-14.98,-210.36 -54.41,9.76 -95.34,-217.68l-1.91 -1049.94c743.73,3.36 839.52,-245.77 823.73,-970.3 -15.8,-724.68 -572.74,-641.73 -1213.23,-647.08 56.58,239.99 6.67,-1.24 80.06,144.08 40.43,80.08 29.66,46.51 29.54,155.64z"/>
   <g>
    <path class="fil0" d="M78.26 1570.35c-196.9,141.49 14.72,436.19 227.13,275.65 142.86,-107.96 6.33,-443.42 -227.13,-275.65z"/>
    <path class="fil0" d="M1566.8 3344.5c47.5,219.02 414.01,136.81 343.34,-106.51 -59.91,-206.34 -398.87,-149.57 -343.34,106.51z"/>
    <path class="fil0" d="M972.44 3280.69c156.38,68.11 154.7,65.56 313.08,0.7 42,-220.87 11.55,-333.68 -252.01,-293 -97.83,128.01 -94.45,99.23 -61.07,292.3z"/>
    <path class="fil0" d="M3110.86 956.96c-242.75,106.86 -74.24,417.68 145.06,321.8 199.44,-87.2 78.91,-420.4 -145.06,-321.8z"/>
    <path class="fil0" d="M533.13 2969.02c393.24,62.22 319.41,-268.3 197.37,-320.23 -250.56,-106.6 -317.23,134.36 -197.37,320.23z"/>
    <path class="fil0" d="M2752.96 450.94c-138.05,194.75 -48.48,411.34 168.09,326.87 166.5,-64.93 205.11,-386.55 -168.09,-326.87z"/>
    <path class="fil0" d="M154.45 2149.72c-82.56,193.86 -5.13,449.22 227.22,305.72 149.32,-92.21 131.25,-376.92 -227.22,-305.72z"/>
    <path class="fil0" d="M151.41 958.52c-61.56,156.05 -64.04,151.31 -2.05,308.71 218.17,41.83 338.39,16.8 294.35,-251.19 -61.19,-44.05 -177.08,-119.45 -292.31,-57.53z"/>
    <path class="fil0" d="M3002.61 2363.89c52.07,187.13 408.89,140.29 341.86,-107.16 -58.4,-215.59 -412.32,-146.14 -341.86,107.16z"/>
    <path class="fil0" d="M2950.45 2656.43c-294.54,-50.47 -323.03,64.3 -262.44,297.12 299.72,97.39 384.38,-79.28 262.44,-297.12z"/>
    <path class="fil0" d="M1806.51 348.71c209.45,-171.85 93.83,-389.75 -106.19,-342.03 -179.19,42.75 -230.68,350.97 106.19,342.03z"/>
    <path class="fil0" d="M479.55 455.15l-31.58 226.23c172.15,162.86 299.61,146 362.48,-79.76 -49.77,-121.87 -27.66,-77.3 -109.05,-158.18l-221.85 11.71z"/>
    <path class="fil0" d="M1039.5 163.23c-190.02,194.36 97,371.24 238.13,236.79 154.26,-146.97 -38,-441.48 -238.13,-236.79z"/>
    <path class="fil0" d="M2477.73 416.01c31.84,-117.16 25.82,-194.96 -29.37,-289.35 -401.45,-124.94 -422.38,422.62 29.37,289.35z"/>
    <path class="fil0" d="M3206.43 1594.4c-201.48,195.41 86.7,390.96 235.77,238.17 158.08,-162.01 -67.38,-401.49 -235.77,-238.17z"/>
    <path class="fil0" d="M2502.31 3273.13c37.28,-180.86 38.61,-181.7 -86.97,-304.15l-212.86 38.83c-77.52,267.32 93.32,363.53 299.83,265.32z"/>
   </g>
  </g>
 </g>
</svg>
